<svg xmlns="http://www.w3.org/2000/svg" viewBox="0 0 1149.96 678.06"><defs><style>.cls-1{fill:#666;stroke:#fff;stroke-miterlimit:10;stroke-width:28px;}</style></defs><g id="Vrstva_2" data-name="Vrstva 2"><g id="Trasa"><path class="cls-1" d="M505,664.06a73.61,73.61,0,0,1-24.43-3.67c-17-5.79-44.08-19.34-102.72-73.13-24.86-22.81-53.38-51-84.77-83.77-38.92-40.65-70.46-96-91.32-132.59q-2.7-4.72-5.14-9a7.91,7.91,0,0,0-.56-.86c-8.82-11.77-48-44.08-71.55-63.54-51.11-42.18-83.15-69.27-97.41-93.63-15.36-26.24-17.3-57-5.46-86.51,8-20,22.22-38.76,41.05-54.18a169.23,169.23,0,0,1,60.11-31.48c25.77-7.38,59.8-9.69,104-7,30.33,1.81,54.45,5.4,55.46,5.56l3.16.47a10.58,10.58,0,0,1,1.24.28l3.07.92C314,39.15,341,58.4,383.07,89.2l10.4,7.62a9,9,0,0,0,14.27-7.33c0-15.33,3.78-29,11.27-40.72C436.54,21.23,468.65,16,494.67,14.49c40.94-2.35,103.56,3.92,163.44,16.36,31.35,6.52,58.63,14.06,81.1,22.42,32.22,12,53.49,25.29,66.94,41.88a79.61,79.61,0,0,1,17.62,60.22c-1.87,15.39-7.92,30.24-18.5,45.4-13.56,19.46-32.8,36.72-51.41,53.41l-.18.16A9,9,0,0,0,760.59,270c33.71-3.43,86-6.84,158.59-6.38,29.28.18,50.76-.84,68-1.65,33.83-1.6,58.27-2.76,82.2,12.56s33.11,38,45.7,69.43c1.44,3.59,3,7.44,4.66,11.57,9.93,24.43,15.18,45.75,16.07,65.17,1,21.33-3.41,40.18-13,56a80.56,80.56,0,0,1-51,36.94l-.63.16c-21.39,6.61-141,43.41-263.16,78.4-79.17,22.68-144.07,40.2-192.89,52.1C585,651.63,561.34,656.77,542.8,660,527.12,662.71,515.05,664.06,505,664.06ZM132,146.83a9,9,0,0,0-.57,13.37c3.37,3.26,7.72,7.32,13.31,12.29,14.13,12.58,31.83,27.18,48.94,41.3,50.82,42,82.67,68.88,96.53,93,1.86,3.23,3.84,6.7,5.92,10.36,18.23,32,45.78,80.3,75.43,111.27,82.62,86.3,121.5,115.5,136.47,125a9,9,0,0,0,6,1.32c21.45-2.92,87.13-15.85,280.17-71.47C881.76,458,965.92,432.51,1010.2,419a15.44,15.44,0,0,0,9.87-20.42c-.28-.72-.58-1.46-.88-2.21-1.74-4.29-3.35-8.28-4.84-12-1.17-2.91-2.38-5.93-3.57-8.84a9,9,0,0,0-8.68-5.58c-3.22.13-6.55.29-9.77.44-17.57.83-41.63,2-73.83,1.77-122.49-.76-180,10.06-182.93,10.63l-5.32,1.17a8.83,8.83,0,0,1-2.35.2l-5.12-.24a138,138,0,0,1-48-11.21c-36.91-16.25-59.71-48-62.56-87.08-2.6-35.83,20.32-62.88,27.86-71.77,12.08-14.26,26.91-27.57,41.26-40.44,2.66-2.38,5.72-5.13,8.91-8a9,9,0,0,0-3.37-15.2c-18.65-5.88-44.26-12.34-77.07-17.95-26.35-4.51-49.5-7.12-68.34-8.45a9,9,0,0,0-9.09,11.92c2.34,6.74,4.46,13.55,6.1,20.4,2.21,9.18,8.92,37.13-6,63.37-10.24,18.06-27.73,30.15-49.25,34A80.39,80.39,0,0,1,469,254.73c-21.74,0-45.6-8.62-76.7-27.33-23.89-14.37-49-32.81-73.37-50.64-18.08-13.25-44.42-32.55-57-39.24a8.68,8.68,0,0,0-3-1c-33.05-4.29-83.52-7-106.19-.49A59.42,59.42,0,0,0,132,146.83Z"/></g></g></svg>