<?xml version="1.0" encoding="utf-8"?>
<!-- Generator: Adobe Illustrator 24.2.1, SVG Export Plug-In . SVG Version: 6.00 Build 0)  -->
<svg version="1.1" id="Layer_1" xmlns="http://www.w3.org/2000/svg" xmlns:xlink="http://www.w3.org/1999/xlink" x="0px" y="0px"
	 viewBox="0 0 1122 650.1" style="enable-background:new 0 0 1122 650.1;" xml:space="preserve">
<style type="text/css">
	.st0{fill:#666666;}
	.st1{fill:#FFFFFF;}
</style>
<g id="Vrstva_2">
	<g id="Trasa">
		<path class="st0" d="M491,650.1c-8.3,0.2-16.6-1.1-24.4-3.7c-17-5.8-44.1-19.3-102.7-73.1c-24.9-22.8-53.4-51-84.8-83.8
			c-38.9-40.6-70.5-96-91.3-132.6c-1.8-3.1-3.5-6.1-5.1-9c-0.2-0.3-0.4-0.6-0.6-0.9c-8.8-11.8-48-44.1-71.6-63.5
			c-51.1-42.2-83.2-69.3-97.4-93.6c-15.4-26.2-17.3-57-5.5-86.5c8-20,22.2-38.8,41-54.2C66.4,34.7,86.8,24,108.8,17.7
			c25.8-7.4,59.8-9.7,104-7c30.3,1.8,54.4,5.4,55.5,5.6l3.2,0.5c0.4,0.1,0.8,0.2,1.2,0.3l3.1,0.9c24.3,7.2,51.3,26.5,93.3,57.3
			l10.4,7.6c4,2.9,9.7,2,12.6-2c1.1-1.5,1.7-3.4,1.7-5.3c0-15.3,3.8-29,11.3-40.7C422.5,7.2,454.6,2,480.7,0.5
			c40.9-2.3,103.6,3.9,163.4,16.4c31.3,6.5,58.6,14.1,81.1,22.4c32.2,12,53.5,25.3,66.9,41.9c13.9,16.8,20.2,38.6,17.6,60.2
			c-1.9,15.4-7.9,30.2-18.5,45.4c-13.6,19.5-32.8,36.7-51.4,53.4l-0.2,0.2c-3.7,3.3-4,9-0.7,12.7c1.9,2.1,4.7,3.2,7.6,3
			c33.7-3.4,86-6.8,158.6-6.4c29.3,0.2,50.8-0.8,68-1.6c33.8-1.6,58.3-2.8,82.2,12.6s33.1,38,45.7,69.4c1.4,3.6,3,7.4,4.7,11.6
			c9.9,24.4,15.2,45.8,16.1,65.2c1,21.3-3.4,40.2-13,56c-11.3,18.7-29.7,32.1-51,36.9l-0.6,0.2c-21.4,6.6-141,43.4-263.2,78.4
			c-79.2,22.7-144.1,40.2-192.9,52.1c-30.1,7.3-53.8,12.5-72.3,15.7C513.1,648.7,501,650.1,491,650.1z M118,132.8
			c-3.8,3.2-4.4,8.8-1.2,12.7c0.2,0.2,0.4,0.5,0.6,0.7c3.4,3.3,7.7,7.3,13.3,12.3c14.1,12.6,31.8,27.2,48.9,41.3
			c50.8,42,82.7,68.9,96.5,93c1.9,3.2,3.8,6.7,5.9,10.4c18.2,32,45.8,80.3,75.4,111.3c82.6,86.3,121.5,115.5,136.5,125
			c1.8,1.1,3.9,1.6,6,1.3c21.5-2.9,87.1-15.8,280.2-71.5c87.6-25.3,171.7-50.8,216-64.3c8.2-2.5,12.8-11.1,10.3-19.3
			c-0.1-0.4-0.3-0.8-0.4-1.2c-0.3-0.7-0.6-1.5-0.9-2.2c-1.7-4.3-3.3-8.3-4.8-12c-1.2-2.9-2.4-5.9-3.6-8.8c-1.4-3.5-4.9-5.7-8.7-5.6
			c-3.2,0.1-6.5,0.3-9.8,0.4c-17.6,0.8-41.6,2-73.8,1.8c-122.5-0.8-180,10.1-182.9,10.6l-5.3,1.2c-0.8,0.2-1.6,0.2-2.3,0.2l-5.1-0.2
			c-16.5-0.8-32.8-4.6-48-11.2c-36.9-16.3-59.7-48-62.6-87.1c-2.6-35.8,20.3-62.9,27.9-71.8c12.1-14.3,26.9-27.6,41.3-40.4
			c2.7-2.4,5.7-5.1,8.9-8c3.7-3.4,3.9-9.1,0.5-12.7c-1.1-1.2-2.4-2-3.9-2.5c-18.7-5.9-44.3-12.3-77.1-18
			c-26.3-4.5-49.5-7.1-68.3-8.4c-5-0.3-9.2,3.4-9.6,8.4c-0.1,1.2,0.1,2.4,0.5,3.5c2.3,6.7,4.5,13.6,6.1,20.4
			c2.2,9.2,8.9,37.1-6,63.4c-10.2,18.1-27.7,30.1-49.3,34c-4.7,0.8-9.5,1.2-14.2,1.2c-21.7,0-45.6-8.6-76.7-27.3
			c-23.9-14.4-49-32.8-73.4-50.6c-18.1-13.3-44.4-32.6-57-39.2c-0.9-0.5-1.9-0.9-3-1c-33-4.3-83.5-7-106.2-0.5
			C131.2,124.2,124.1,127.9,118,132.8z"/>
	</g>
</g>
<rect x="828.2" y="466.6" transform="matrix(0.9595 -0.2816 0.2816 0.9595 -109.8433 255.648)" class="st1" width="12.5" height="86.8"/>
</svg>
