<svg xmlns="http://www.w3.org/2000/svg" viewBox="0 0 91.94 57.46"><defs><style>.cls-1{fill:#fbc23b;}.cls-2{fill:#1a1a1a;}.cls-3{fill:#4d4d4d;}.cls-4{fill:blue;}.cls-5{fill:#37474f;}</style></defs><g id="Layer_2" data-name="Layer 2"><g id="Layer_1-2" data-name="Layer 1"><path class="cls-1" d="M91.94,28.27v1a3.83,3.83,0,0,1-1.78,2.65c-.06,0-.13.07-.15.16a.63.63,0,0,0-.33.09,2.9,2.9,0,0,1-1,.3q-.75.07-1.5.18l-4.86.7h-.09l-6.83,1-2.64.4c-1.28.14-2.56.34-3.83.53l-9.45,1.35L49.67,38a.35.35,0,0,0-.28.2,15.75,15.75,0,0,0-1.36,4,17.79,17.79,0,0,1-.3,2.07,4.82,4.82,0,0,1-4.88,3.53,2.1,2.1,0,0,0-.79,0c-.64-.3-1.26-.64-1.91-.91l-15.33-6.4-5.66-2.35h0V19.31h0l.26-.1,19.17-8c1.18-.49,2.33-1,3.47-1.57.13,0,.24.07.39,0a4.54,4.54,0,0,1,3.88,1.2,4.54,4.54,0,0,1,1.55,3,14.78,14.78,0,0,0,1.51,5.4.29.29,0,0,0,.25.19l6.14.87,6.64.95,6.53.92,1.12.17,2.71.37.31.06,2.61.38,6.64.94,3.11.46c.9.13,1.81.25,2.71.36a4.52,4.52,0,0,1,1.65.42.67.67,0,0,0,.2,0c0,.11.12.14.2.19a3.82,3.82,0,0,1,1.31,1.48A5.34,5.34,0,0,1,91.94,28.27Zm-51.71.44v5.43c0,.25,0,.34.32.34h9.16a6.53,6.53,0,0,0,1.64-.21A5.74,5.74,0,0,0,49.74,23H40.51c-.25,0-.29.08-.29.31,0,1.79,0,3.63,0,5.4Zm-5.74,0V23.28c0-.24,0-.34-.31-.32H32.69a1.93,1.93,0,0,0-2,1.84v7.68a1.9,1.9,0,0,0,1.79,2h1.7c.27,0,.31-.08.31-.32,0-1.81,0-3.62,0-5.43Z"/><path class="cls-2" d="M26.84,47.87v7.48a2,2,0,0,1-.8,1.74,4.73,4.73,0,0,1-.79.37h-16c-.23-.15-.51-.2-.74-.37a2,2,0,0,1-.8-1.71V49.81h5.43c.24,0,.32-.06.32-.32V44.07h1.11a1.84,1.84,0,0,0,.81,0h3.8a.66.66,0,0,0,.39.06h5.34a2.26,2.26,0,0,1,.52,0,2,2,0,0,1,1.44,2C26.84,46.7,26.84,47.29,26.84,47.87Z"/><path class="cls-3" d="M40.22,28.71V23.29c0-.23,0-.31.29-.31h9.22a5.74,5.74,0,0,1,1.61,11.28,6.53,6.53,0,0,1-1.64.21H40.54c-.28,0-.32-.09-.32-.34C40.23,32.33,40.22,30.52,40.22,28.71Z"/><path class="cls-4" d="M82.34,24.07V8c0-.25,0-.34.32-.34h7.08c.22,0,.29.06.29.29v17.4a.67.67,0,0,1-.2,0,4.59,4.59,0,0,0-1.67-.4c-.9-.11-1.81-.23-2.71-.36Z"/><path class="cls-4" d="M90,32.12V49.46c0,.28-.08.35-.35.35h-7c-.27,0-.32-.09-.32-.34V33.39l4.86-.7,1.5-.18a2.9,2.9,0,0,0,1-.3A.8.8,0,0,1,90,32.12Z"/><path class="cls-4" d="M19.14,19.31V38.15l-.8-.31-3-1.24c-.27-.12-.53-.24-.81-.35a7.35,7.35,0,0,0-1.13-.44V21.65a15.47,15.47,0,0,0,1.94-.79l1-.38Z"/><path class="cls-3" d="M26.84,9.59H42.06c-1.14.55-2.29,1.08-3.47,1.57l-19.17,8-.26.1V13.43a.86.86,0,0,1,.39-.06h5.29a1.82,1.82,0,0,0,.57,0,2,2,0,0,0,1.44-2C26.84,10.76,26.84,10.17,26.84,9.59Z"/><path class="cls-3" d="M26.84,47.87V46.12a2,2,0,0,0-1.44-2,2.26,2.26,0,0,0-.52,0H19.53a.66.66,0,0,1-.39-.06V38.18l5.66,2.35,15.35,6.41c.65.27,1.27.61,1.91.91H26.83Z"/><path class="cls-3" d="M34.48,28.73v5.43c0,.24,0,.34-.31.32H32.68a1.9,1.9,0,0,1-2-1.79V25a1.92,1.92,0,0,1,1.84-2h1.65c.27,0,.31.08.31.32C34.47,25.11,34.48,26.94,34.48,28.73Z"/><path class="cls-5" d="M68.94,22.15V15.34h3.84v7.35l-2.71-.37Z"/><path class="cls-5" d="M68.94,42.12V35.3c1.27-.19,2.55-.39,3.83-.53v7.35Z"/><path class="cls-5" d="M19.14,13.45v5.83h0l-2.85,1.17-1,.38V13.45Z"/><path class="cls-5" d="M19.16,38.18V44H15.34V36.6l3,1.24.8.31Z"/><path class="cls-1" d="M13.4,21.65V49.49c0,.26-.08.32-.32.32H.28c-.23,0-.28-.07-.28-.29V7.94c0-.22.05-.29.28-.29H13.09c.24,0,.32.06.32.32v5.8Q13.4,17.7,13.4,21.65Z"/><path class="cls-2" d="M72.79,15.34H63a1.87,1.87,0,0,1-1.64-1.69V3.94a1.93,1.93,0,0,1,1.42-2,3.32,3.32,0,0,1,.63,0H78.33a2,2,0,0,1,2.11,1.89v9.44a1.91,1.91,0,0,1-1.42,2,2.49,2.49,0,0,1-.72.08Z"/><path class="cls-2" d="M13.42,13.39V8c0-.26-.08-.32-.32-.32H7.66V2.07A2,2,0,0,1,9.59,0H24.81a1.93,1.93,0,0,1,2,1.87.81.81,0,0,1,0,.22v9.25a2,2,0,0,1-1.44,2,1.82,1.82,0,0,1-.57,0H19.53a.86.86,0,0,0-.39.06h-3.8a.74.74,0,0,0-.36-.06Z"/><path class="cls-2" d="M68.94,42.12h9.41a2,2,0,0,1,2.08,1.82v9.6a1.92,1.92,0,0,1-1.83,2H63.35a2,2,0,0,1-1.71-.78,1.92,1.92,0,0,1-.39-1.2V44.11a1.91,1.91,0,0,1,1.82-2h5.87Z"/><path class="cls-3" d="M13.42,44.07V35.81a7.35,7.35,0,0,1,1.13.44c.28.11.54.23.81.35V44a1.85,1.85,0,0,1-.81,0Z"/><path class="cls-3" d="M13.42,13.39h1.52a.74.74,0,0,1,.36.06v7.41a15.47,15.47,0,0,1-1.94.79V13.77A1,1,0,0,0,13.42,13.39Z"/></g></g></svg>