<svg xmlns="http://www.w3.org/2000/svg" viewBox="0 0 1121.97 650.07"><defs><style>.cls-1{fill:#666;}.cls-2{fill:#fff;}</style></defs><g id="Layer_2" data-name="Layer 2"><g id="Layer_1-2" data-name="Layer 1"><g id="Vrstva_2" data-name="Vrstva 2"><g id="Trasa"><path class="cls-1" d="M491,650.06a73.69,73.69,0,0,1-24.43-3.67c-17-5.79-44.08-19.34-102.72-73.13-24.86-22.81-53.38-51-84.77-83.77-38.92-40.65-70.46-96-91.32-132.59l-5.14-9a8.46,8.46,0,0,0-.56-.86c-8.82-11.77-48-44.08-71.55-63.54-51.11-42.18-83.15-69.27-97.41-93.63-15.36-26.24-17.3-57-5.46-86.51,8-20,22.22-38.76,41.05-54.18A168.93,168.93,0,0,1,108.82,17.7c25.77-7.38,59.8-9.69,104-7,30.33,1.81,54.45,5.4,55.46,5.56l3.16.47a10.58,10.58,0,0,1,1.24.28l3.07.92C300,25.15,327,44.4,369.09,75.2l10.4,7.62a9,9,0,0,0,14.27-7.33c0-15.33,3.78-29,11.27-40.72C422.56,7.23,454.67,2,480.69.49c40.94-2.35,103.56,3.92,163.44,16.36,31.35,6.52,58.63,14.06,81.1,22.42,32.22,12,53.49,25.29,66.94,41.88a79.59,79.59,0,0,1,17.62,60.22c-1.87,15.39-7.92,30.24-18.5,45.4-13.56,19.46-32.8,36.72-51.41,53.41l-.18.16A9,9,0,0,0,746.61,256c33.71-3.43,86-6.84,158.59-6.38,29.28.18,50.76-.84,68-1.65,33.83-1.6,58.27-2.76,82.2,12.56s33.11,38,45.7,69.43q2.16,5.39,4.66,11.57c9.93,24.43,15.18,45.75,16.07,65.17,1,21.33-3.41,40.18-13,56a80.6,80.6,0,0,1-51,36.94l-.63.16c-21.39,6.61-141,43.41-263.16,78.4C714.87,600.88,650,618.4,601.15,630.3c-30.13,7.33-53.79,12.47-72.33,15.7C513.14,648.71,501.07,650.06,491,650.06ZM118,132.83a9,9,0,0,0-1.21,12.67,8.42,8.42,0,0,0,.64.7c3.37,3.26,7.72,7.32,13.31,12.29,14.13,12.58,31.83,27.18,48.94,41.3,50.82,42,82.67,68.88,96.53,93,1.86,3.23,3.84,6.7,5.92,10.36,18.23,32,45.78,80.3,75.43,111.27,82.62,86.3,121.5,115.5,136.47,125a9,9,0,0,0,6,1.32c21.45-2.92,87.13-15.85,280.17-71.47,87.56-25.27,171.72-50.76,216-64.27a15.44,15.44,0,0,0,10.27-19.27c-.12-.39-.25-.77-.4-1.15-.28-.72-.58-1.46-.88-2.21-1.74-4.29-3.35-8.28-4.84-12-1.17-2.91-2.38-5.93-3.57-8.84a9,9,0,0,0-8.68-5.58c-3.22.13-6.55.29-9.77.44-17.57.83-41.63,2-73.83,1.77-122.49-.76-180,10.06-182.93,10.63L716.27,370a8.83,8.83,0,0,1-2.35.2l-5.12-.24a138.28,138.28,0,0,1-48-11.21c-36.91-16.25-59.71-48-62.56-87.08-2.6-35.83,20.32-62.88,27.86-71.77,12.08-14.26,26.91-27.57,41.26-40.44l8.91-8a9,9,0,0,0-3.37-15.2c-18.65-5.88-44.26-12.34-77.07-18-26.35-4.51-49.5-7.12-68.34-8.45a9,9,0,0,0-9.57,8.39,9.18,9.18,0,0,0,.48,3.53c2.34,6.74,4.46,13.55,6.1,20.4,2.21,9.18,8.92,37.13-6,63.37-10.24,18.06-27.73,30.15-49.25,34A81.79,81.79,0,0,1,455,240.73c-21.74,0-45.6-8.62-76.7-27.33-23.89-14.37-49-32.81-73.37-50.64-18.08-13.25-44.42-32.55-57-39.24a8.44,8.44,0,0,0-3-1c-33-4.29-83.52-7-106.19-.49A59.38,59.38,0,0,0,118,132.83Z"/></g></g><rect class="cls-2" x="828.25" y="466.55" width="12.48" height="86.82" transform="translate(-109.84 255.65) rotate(-16.36)"/></g></g></svg>